<svg id="visual" viewBox="0 0 1920 1745" width="1920" height="1745" xmlns="http://www.w3.org/2000/svg" xmlns:xlink="http://www.w3.org/1999/xlink" version="1.1"><rect x="0" y="0" width="1920" height="1745" fill="#348a89"></rect><path d="M0 603L45.7 592.3C91.3 581.7 182.7 560.3 274.2 573.5C365.7 586.7 457.3 634.3 548.8 650.7C640.3 667 731.7 652 823 632.7C914.3 613.3 1005.7 589.7 1097 570.7C1188.3 551.7 1279.7 537.3 1371.2 548.7C1462.7 560 1554.3 597 1645.8 603.7C1737.3 610.3 1828.7 586.7 1874.3 574.8L1920 563L1920 0L1874.3 0C1828.7 0 1737.3 0 1645.8 0C1554.3 0 1462.7 0 1371.2 0C1279.7 0 1188.3 0 1097 0C1005.7 0 914.3 0 823 0C731.7 0 640.3 0 548.8 0C457.3 0 365.7 0 274.2 0C182.7 0 91.3 0 45.7 0L0 0Z" fill="#43b2b0"></path><path d="M0 405L45.7 409.7C91.3 414.3 182.7 423.7 274.2 438.7C365.7 453.7 457.3 474.3 548.8 468.3C640.3 462.3 731.7 429.7 823 434.2C914.3 438.7 1005.7 480.3 1097 512.3C1188.3 544.3 1279.7 566.7 1371.2 567.7C1462.7 568.7 1554.3 548.3 1645.8 523.5C1737.3 498.7 1828.7 469.3 1874.3 454.7L1920 440L1920 0L1874.3 0C1828.7 0 1737.3 0 1645.8 0C1554.3 0 1462.7 0 1371.2 0C1279.7 0 1188.3 0 1097 0C1005.7 0 914.3 0 823 0C731.7 0 640.3 0 548.8 0C457.3 0 365.7 0 274.2 0C182.7 0 91.3 0 45.7 0L0 0Z" fill="#3a9c95"></path><path d="M0 347L45.7 351.3C91.3 355.7 182.7 364.3 274.2 359.8C365.7 355.3 457.3 337.7 548.8 339.2C640.3 340.7 731.7 361.3 823 354.5C914.3 347.7 1005.7 313.3 1097 297.2C1188.3 281 1279.7 283 1371.2 292C1462.7 301 1554.3 317 1645.8 347.7C1737.3 378.3 1828.7 423.7 1874.3 446.3L1920 469L1920 0L1874.3 0C1828.7 0 1737.3 0 1645.8 0C1554.3 0 1462.7 0 1371.2 0C1279.7 0 1188.3 0 1097 0C1005.7 0 914.3 0 823 0C731.7 0 640.3 0 548.8 0C457.3 0 365.7 0 274.2 0C182.7 0 91.3 0 45.7 0L0 0Z" fill="#32867c"></path><path d="M0 183L45.7 197.8C91.3 212.7 182.7 242.3 274.2 257C365.7 271.7 457.3 271.3 548.8 271.7C640.3 272 731.7 273 823 270.2C914.3 267.3 1005.7 260.7 1097 251.3C1188.3 242 1279.7 230 1371.2 244.2C1462.7 258.3 1554.3 298.7 1645.8 295.5C1737.3 292.3 1828.7 245.7 1874.3 222.3L1920 199L1920 0L1874.3 0C1828.7 0 1737.3 0 1645.8 0C1554.3 0 1462.7 0 1371.2 0C1279.7 0 1188.3 0 1097 0C1005.7 0 914.3 0 823 0C731.7 0 640.3 0 548.8 0C457.3 0 365.7 0 274.2 0C182.7 0 91.3 0 45.7 0L0 0Z" fill="#297164"></path><path d="M0 216L45.7 203.2C91.3 190.3 182.7 164.7 274.2 149C365.7 133.3 457.3 127.7 548.8 134.3C640.3 141 731.7 160 823 164.8C914.3 169.7 1005.7 160.3 1097 155.8C1188.3 151.3 1279.7 151.7 1371.2 148.3C1462.7 145 1554.3 138 1645.8 144.8C1737.3 151.7 1828.7 172.3 1874.3 182.7L1920 193L1920 0L1874.3 0C1828.7 0 1737.3 0 1645.8 0C1554.3 0 1462.7 0 1371.2 0C1279.7 0 1188.3 0 1097 0C1005.7 0 914.3 0 823 0C731.7 0 640.3 0 548.8 0C457.3 0 365.7 0 274.2 0C182.7 0 91.3 0 45.7 0L0 0Z" fill="#215d4e"></path></svg>