<svg id="visual" viewBox="0 0 1872 462" width="1872" height="462" xmlns="http://www.w3.org/2000/svg" xmlns:xlink="http://www.w3.org/1999/xlink" version="1.1"><path d="M0 135L19.5 134.2C39 133.3 78 131.7 117 134C156 136.3 195 142.7 234 143.5C273 144.3 312 139.7 351 148.2C390 156.7 429 178.3 468 193C507 207.7 546 215.3 585 210.7C624 206 663 189 702 166.7C741 144.3 780 116.7 819 109.7C858 102.7 897 116.3 936 133.2C975 150 1014 170 1053 180C1092 190 1131 190 1170 175.5C1209 161 1248 132 1287 126.7C1326 121.3 1365 139.7 1404 145.8C1443 152 1482 146 1521 152.2C1560 158.3 1599 176.7 1638 180.5C1677 184.3 1716 173.7 1755 174.5C1794 175.3 1833 187.7 1852.5 193.8L1872 200L1872 0L1852.5 0C1833 0 1794 0 1755 0C1716 0 1677 0 1638 0C1599 0 1560 0 1521 0C1482 0 1443 0 1404 0C1365 0 1326 0 1287 0C1248 0 1209 0 1170 0C1131 0 1092 0 1053 0C1014 0 975 0 936 0C897 0 858 0 819 0C780 0 741 0 702 0C663 0 624 0 585 0C546 0 507 0 468 0C429 0 390 0 351 0C312 0 273 0 234 0C195 0 156 0 117 0C78 0 39 0 19.5 0L0 0Z" fill="#ffffff"></path><path d="M0 255L19.5 252C39 249 78 243 117 239.2C156 235.3 195 233.7 234 227.5C273 221.3 312 210.7 351 225.3C390 240 429 280 468 295.3C507 310.7 546 301.3 585 295.2C624 289 663 286 702 269.8C741 253.7 780 224.3 819 219.7C858 215 897 235 936 246.5C975 258 1014 261 1053 262.5C1092 264 1131 264 1170 255.7C1209 247.3 1248 230.7 1287 236.2C1326 241.7 1365 269.3 1404 273.2C1443 277 1482 257 1521 254.7C1560 252.3 1599 267.7 1638 273C1677 278.3 1716 273.7 1755 276.7C1794 279.7 1833 290.3 1852.5 295.7L1872 301L1872 198L1852.5 191.8C1833 185.7 1794 173.3 1755 172.5C1716 171.7 1677 182.3 1638 178.5C1599 174.7 1560 156.3 1521 150.2C1482 144 1443 150 1404 143.8C1365 137.7 1326 119.3 1287 124.7C1248 130 1209 159 1170 173.5C1131 188 1092 188 1053 178C1014 168 975 148 936 131.2C897 114.3 858 100.7 819 107.7C780 114.7 741 142.3 702 164.7C663 187 624 204 585 208.7C546 213.3 507 205.7 468 191C429 176.3 390 154.7 351 146.2C312 137.7 273 142.3 234 141.5C195 140.7 156 134.3 117 132C78 129.7 39 131.3 19.5 132.2L0 133Z" fill="#c6e6e4"></path><path d="M0 366L19.5 366.8C39 367.7 78 369.3 117 374C156 378.7 195 386.3 234 386.3C273 386.3 312 378.7 351 381.7C390 384.7 429 398.3 468 405.2C507 412 546 412 585 412.8C624 413.7 663 415.3 702 410.7C741 406 780 395 819 391.8C858 388.7 897 393.3 936 389.5C975 385.7 1014 373.3 1053 368.8C1092 364.3 1131 367.7 1170 374.7C1209 381.7 1248 392.3 1287 400C1326 407.7 1365 412.3 1404 410.8C1443 409.3 1482 401.7 1521 399.3C1560 397 1599 400 1638 394.5C1677 389 1716 375 1755 371.8C1794 368.7 1833 376.3 1852.5 380.2L1872 384L1872 299L1852.5 293.7C1833 288.3 1794 277.7 1755 274.7C1716 271.7 1677 276.3 1638 271C1599 265.7 1560 250.3 1521 252.7C1482 255 1443 275 1404 271.2C1365 267.3 1326 239.7 1287 234.2C1248 228.7 1209 245.3 1170 253.7C1131 262 1092 262 1053 260.5C1014 259 975 256 936 244.5C897 233 858 213 819 217.7C780 222.3 741 251.7 702 267.8C663 284 624 287 585 293.2C546 299.3 507 308.7 468 293.3C429 278 390 238 351 223.3C312 208.7 273 219.3 234 225.5C195 231.7 156 233.3 117 237.2C78 241 39 247 19.5 250L0 253Z" fill="#8bccca"></path><path d="M0 463L19.5 463C39 463 78 463 117 463C156 463 195 463 234 463C273 463 312 463 351 463C390 463 429 463 468 463C507 463 546 463 585 463C624 463 663 463 702 463C741 463 780 463 819 463C858 463 897 463 936 463C975 463 1014 463 1053 463C1092 463 1131 463 1170 463C1209 463 1248 463 1287 463C1326 463 1365 463 1404 463C1443 463 1482 463 1521 463C1560 463 1599 463 1638 463C1677 463 1716 463 1755 463C1794 463 1833 463 1852.5 463L1872 463L1872 382L1852.5 378.2C1833 374.3 1794 366.7 1755 369.8C1716 373 1677 387 1638 392.5C1599 398 1560 395 1521 397.3C1482 399.7 1443 407.3 1404 408.8C1365 410.3 1326 405.7 1287 398C1248 390.3 1209 379.7 1170 372.7C1131 365.7 1092 362.3 1053 366.8C1014 371.3 975 383.7 936 387.5C897 391.3 858 386.7 819 389.8C780 393 741 404 702 408.7C663 413.3 624 411.7 585 410.8C546 410 507 410 468 403.2C429 396.3 390 382.7 351 379.7C312 376.7 273 384.3 234 384.3C195 384.3 156 376.7 117 372C78 367.3 39 365.7 19.5 364.8L0 364Z" fill="#43b2b0"></path></svg>