<svg id="visual" viewBox="0 0 1872 257.281" width="1872" height="257.281" xmlns="http://www.w3.org/2000/svg" xmlns:xlink="http://www.w3.org/1999/xlink" version="1.1"><path d="M0 76L19.5 75.5C39 75 78 74 117 75.2C156 76.3 195 79.7 234 80.2C273 80.7 312 78.3 351 83.2C390 88 429 100 468 108C507 116 546 120 585 117.3C624 114.7 663 105.3 702 93C741 80.7 780 65.3 819 61.5C858 57.7 897 65.3 936 74.7C975 84 1014 95 1053 100.5C1092 106 1131 106 1170 98C1209 90 1248 74 1287 71C1326 68 1365 78 1404 81.3C1443 84.7 1482 81.3 1521 84.8C1560 88.3 1599 98.7 1638 100.8C1677 103 1716 97 1755 97.5C1794 98 1833 105 1852.5 108.5L1872 112L1872 0L1852.5 0C1833 0 1794 0 1755 0C1716 0 1677 0 1638 0C1599 0 1560 0 1521 0C1482 0 1443 0 1404 0C1365 0 1326 0 1287 0C1248 0 1209 0 1170 0C1131 0 1092 0 1053 0C1014 0 975 0 936 0C897 0 858 0 819 0C780 0 741 0 702 0C663 0 624 0 585 0C546 0 507 0 468 0C429 0 390 0 351 0C312 0 273 0 234 0C195 0 156 0 117 0C78 0 39 0 19.5 0L0 0Z" fill="#43b2b0"></path><path d="M0 143L19.5 141.2C39 139.3 78 135.7 117 133.5C156 131.3 195 130.7 234 127.3C273 124 312 118 351 126.2C390 134.3 429 156.7 468 165.2C507 173.7 546 168.3 585 164.8C624 161.3 663 159.7 702 150.7C741 141.7 780 125.3 819 122.8C858 120.3 897 131.7 936 138.2C975 144.7 1014 146.3 1053 147.2C1092 148 1131 148 1170 143.2C1209 138.3 1248 128.7 1287 131.7C1326 134.7 1365 150.3 1404 152.5C1443 154.7 1482 143.3 1521 142C1560 140.7 1599 149.3 1638 152.3C1677 155.3 1716 152.7 1755 154.3C1794 156 1833 162 1852.5 165L1872 168L1872 110L1852.5 106.5C1833 103 1794 96 1755 95.5C1716 95 1677 101 1638 98.8C1599 96.7 1560 86.3 1521 82.8C1482 79.3 1443 82.7 1404 79.3C1365 76 1326 66 1287 69C1248 72 1209 88 1170 96C1131 104 1092 104 1053 98.5C1014 93 975 82 936 72.7C897 63.3 858 55.7 819 59.5C780 63.3 741 78.7 702 91C663 103.3 624 112.7 585 115.3C546 118 507 114 468 106C429 98 390 86 351 81.2C312 76.3 273 78.7 234 78.2C195 77.7 156 74.3 117 73.2C78 72 39 73 19.5 73.5L0 74Z" fill="#8bccca"></path><path d="M0 204L19.5 204.5C39 205 78 206 117 208.7C156 211.3 195 215.7 234 215.7C273 215.7 312 211.3 351 213C390 214.7 429 222.3 468 226.2C507 230 546 230 585 230.5C624 231 663 232 702 229.5C741 227 780 221 819 219.2C858 217.3 897 219.7 936 217.5C975 215.3 1014 208.7 1053 206.2C1092 203.7 1131 205.3 1170 209.2C1209 213 1248 219 1287 223.3C1326 227.7 1365 230.3 1404 229.5C1443 228.7 1482 224.3 1521 223C1560 221.7 1599 223.3 1638 220.3C1677 217.3 1716 209.7 1755 208C1794 206.3 1833 210.7 1852.5 212.8L1872 215L1872 166L1852.5 163C1833 160 1794 154 1755 152.3C1716 150.7 1677 153.3 1638 150.3C1599 147.3 1560 138.7 1521 140C1482 141.3 1443 152.7 1404 150.5C1365 148.3 1326 132.7 1287 129.7C1248 126.7 1209 136.3 1170 141.2C1131 146 1092 146 1053 145.2C1014 144.3 975 142.7 936 136.2C897 129.7 858 118.3 819 120.8C780 123.3 741 139.7 702 148.7C663 157.7 624 159.3 585 162.8C546 166.3 507 171.7 468 163.2C429 154.7 390 132.3 351 124.2C312 116 273 122 234 125.3C195 128.7 156 129.3 117 131.5C78 133.7 39 137.3 19.5 139.2L0 141Z" fill="#c6e6e4"></path><path d="M0 258L19.5 258C39 258 78 258 117 258C156 258 195 258 234 258C273 258 312 258 351 258C390 258 429 258 468 258C507 258 546 258 585 258C624 258 663 258 702 258C741 258 780 258 819 258C858 258 897 258 936 258C975 258 1014 258 1053 258C1092 258 1131 258 1170 258C1209 258 1248 258 1287 258C1326 258 1365 258 1404 258C1443 258 1482 258 1521 258C1560 258 1599 258 1638 258C1677 258 1716 258 1755 258C1794 258 1833 258 1852.5 258L1872 258L1872 213L1852.5 210.8C1833 208.7 1794 204.3 1755 206C1716 207.7 1677 215.3 1638 218.3C1599 221.3 1560 219.7 1521 221C1482 222.3 1443 226.7 1404 227.5C1365 228.3 1326 225.7 1287 221.3C1248 217 1209 211 1170 207.2C1131 203.3 1092 201.7 1053 204.2C1014 206.7 975 213.3 936 215.5C897 217.7 858 215.3 819 217.2C780 219 741 225 702 227.5C663 230 624 229 585 228.5C546 228 507 228 468 224.2C429 220.3 390 212.7 351 211C312 209.3 273 213.7 234 213.7C195 213.7 156 209.3 117 206.7C78 204 39 203 19.5 202.5L0 202Z" fill="#ffffff"></path></svg>