<svg id="visual" viewBox="0 0 1872 257.281" width="1872" height="257.281" xmlns="http://www.w3.org/2000/svg" xmlns:xlink="http://www.w3.org/1999/xlink" version="1.1"><path d="M0 68L19.5 67.2C39 66.3 78 64.7 117 71C156 77.3 195 91.7 234 95C273 98.3 312 90.7 351 83.8C390 77 429 71 468 65.5C507 60 546 55 585 60.7C624 66.3 663 82.7 702 92.5C741 102.3 780 105.7 819 100.8C858 96 897 83 936 75.7C975 68.3 1014 66.7 1053 75.7C1092 84.7 1131 104.3 1170 112.5C1209 120.7 1248 117.3 1287 116.5C1326 115.7 1365 117.3 1404 107.5C1443 97.7 1482 76.3 1521 67.3C1560 58.3 1599 61.7 1638 68.5C1677 75.3 1716 85.7 1755 90.5C1794 95.3 1833 94.7 1852.5 94.3L1872 94L1872 0L1852.5 0C1833 0 1794 0 1755 0C1716 0 1677 0 1638 0C1599 0 1560 0 1521 0C1482 0 1443 0 1404 0C1365 0 1326 0 1287 0C1248 0 1209 0 1170 0C1131 0 1092 0 1053 0C1014 0 975 0 936 0C897 0 858 0 819 0C780 0 741 0 702 0C663 0 624 0 585 0C546 0 507 0 468 0C429 0 390 0 351 0C312 0 273 0 234 0C195 0 156 0 117 0C78 0 39 0 19.5 0L0 0Z" fill="#215d4e"></path><path d="M0 96L19.5 96C39 96 78 96 117 105C156 114 195 132 234 135.5C273 139 312 128 351 122.8C390 117.7 429 118.3 468 116.2C507 114 546 109 585 112C624 115 663 126 702 133.7C741 141.3 780 145.7 819 140.5C858 135.3 897 120.7 936 111.7C975 102.7 1014 99.3 1053 108.5C1092 117.7 1131 139.3 1170 149.2C1209 159 1248 157 1287 154.8C1326 152.7 1365 150.3 1404 141.3C1443 132.3 1482 116.7 1521 108.8C1560 101 1599 101 1638 109.2C1677 117.3 1716 133.7 1755 140.2C1794 146.7 1833 143.3 1852.5 141.7L1872 140L1872 92L1852.5 92.3C1833 92.7 1794 93.3 1755 88.5C1716 83.7 1677 73.3 1638 66.5C1599 59.7 1560 56.3 1521 65.3C1482 74.3 1443 95.7 1404 105.5C1365 115.3 1326 113.7 1287 114.5C1248 115.3 1209 118.7 1170 110.5C1131 102.3 1092 82.7 1053 73.7C1014 64.7 975 66.3 936 73.7C897 81 858 94 819 98.8C780 103.7 741 100.3 702 90.5C663 80.7 624 64.3 585 58.7C546 53 507 58 468 63.5C429 69 390 75 351 81.8C312 88.7 273 96.3 234 93C195 89.7 156 75.3 117 69C78 62.7 39 64.3 19.5 65.2L0 66Z" fill="#2c786c"></path><path d="M0 207L19.5 204.8C39 202.7 78 198.3 117 200.5C156 202.7 195 211.3 234 216C273 220.7 312 221.3 351 219.5C390 217.7 429 213.3 468 210.3C507 207.3 546 205.7 585 208.3C624 211 663 218 702 221.8C741 225.7 780 226.3 819 222.8C858 219.3 897 211.7 936 205.3C975 199 1014 194 1053 197C1092 200 1131 211 1170 213.5C1209 216 1248 210 1287 205.8C1326 201.7 1365 199.3 1404 200.2C1443 201 1482 205 1521 204.5C1560 204 1599 199 1638 201.2C1677 203.3 1716 212.7 1755 217C1794 221.3 1833 220.7 1852.5 220.3L1872 220L1872 138L1852.5 139.7C1833 141.3 1794 144.7 1755 138.2C1716 131.7 1677 115.3 1638 107.2C1599 99 1560 99 1521 106.8C1482 114.7 1443 130.3 1404 139.3C1365 148.3 1326 150.7 1287 152.8C1248 155 1209 157 1170 147.2C1131 137.3 1092 115.7 1053 106.5C1014 97.3 975 100.7 936 109.7C897 118.7 858 133.3 819 138.5C780 143.7 741 139.3 702 131.7C663 124 624 113 585 110C546 107 507 112 468 114.2C429 116.3 390 115.7 351 120.8C312 126 273 137 234 133.5C195 130 156 112 117 103C78 94 39 94 19.5 94L0 94Z" fill="#38948d"></path><path d="M0 258L19.5 258C39 258 78 258 117 258C156 258 195 258 234 258C273 258 312 258 351 258C390 258 429 258 468 258C507 258 546 258 585 258C624 258 663 258 702 258C741 258 780 258 819 258C858 258 897 258 936 258C975 258 1014 258 1053 258C1092 258 1131 258 1170 258C1209 258 1248 258 1287 258C1326 258 1365 258 1404 258C1443 258 1482 258 1521 258C1560 258 1599 258 1638 258C1677 258 1716 258 1755 258C1794 258 1833 258 1852.5 258L1872 258L1872 218L1852.5 218.3C1833 218.7 1794 219.3 1755 215C1716 210.7 1677 201.3 1638 199.2C1599 197 1560 202 1521 202.5C1482 203 1443 199 1404 198.2C1365 197.3 1326 199.7 1287 203.8C1248 208 1209 214 1170 211.5C1131 209 1092 198 1053 195C1014 192 975 197 936 203.3C897 209.7 858 217.3 819 220.8C780 224.3 741 223.7 702 219.8C663 216 624 209 585 206.3C546 203.7 507 205.3 468 208.3C429 211.3 390 215.7 351 217.5C312 219.3 273 218.7 234 214C195 209.3 156 200.7 117 198.5C78 196.3 39 200.7 19.5 202.8L0 205Z" fill="#43b2b0"></path></svg>