<svg id="visual" viewBox="0 0 1872 750" width="1872" height="750" xmlns="http://www.w3.org/2000/svg" xmlns:xlink="http://www.w3.org/1999/xlink" version="1.1"><path d="M0 174L28.3 166.5C56.7 159 113.3 144 170 140.2C226.7 136.3 283.3 143.7 340.2 151.2C397 158.7 454 166.3 510.8 161.3C567.7 156.3 624.3 138.7 681 146C737.7 153.3 794.3 185.7 851 185.7C907.7 185.7 964.3 153.3 1021 152.2C1077.7 151 1134.3 181 1191 201C1247.7 221 1304.3 231 1361.2 226C1418 221 1475 201 1531.8 181C1588.7 161 1645.3 141 1702 144.8C1758.7 148.7 1815.3 176.3 1843.7 190.2L1872 204L1872 0L1843.7 0C1815.3 0 1758.7 0 1702 0C1645.3 0 1588.7 0 1531.8 0C1475 0 1418 0 1361.2 0C1304.3 0 1247.7 0 1191 0C1134.3 0 1077.7 0 1021 0C964.3 0 907.7 0 851 0C794.3 0 737.7 0 681 0C624.3 0 567.7 0 510.8 0C454 0 397 0 340.2 0C283.3 0 226.7 0 170 0C113.3 0 56.7 0 28.3 0L0 0Z" fill="#43b2b0"></path><path d="M0 286L28.3 277.3C56.7 268.7 113.3 251.3 170 237.7C226.7 224 283.3 214 340.2 214C397 214 454 224 510.8 226.3C567.7 228.7 624.3 223.3 681 233.3C737.7 243.3 794.3 268.7 851 272.5C907.7 276.3 964.3 258.7 1021 261.2C1077.7 263.7 1134.3 286.3 1191 296.3C1247.7 306.3 1304.3 303.7 1361.2 296.2C1418 288.7 1475 276.3 1531.8 261.3C1588.7 246.3 1645.3 228.7 1702 236.2C1758.7 243.7 1815.3 276.3 1843.7 292.7L1872 309L1872 202L1843.7 188.2C1815.3 174.3 1758.7 146.7 1702 142.8C1645.3 139 1588.7 159 1531.8 179C1475 199 1418 219 1361.2 224C1304.3 229 1247.7 219 1191 199C1134.3 179 1077.7 149 1021 150.2C964.3 151.3 907.7 183.7 851 183.7C794.3 183.7 737.7 151.3 681 144C624.3 136.7 567.7 154.3 510.8 159.3C454 164.3 397 156.7 340.2 149.2C283.3 141.7 226.7 134.3 170 138.2C113.3 142 56.7 157 28.3 164.5L0 172Z" fill="#8fcecc"></path><path d="M0 459L28.3 447.7C56.7 436.3 113.3 413.7 170 397.3C226.7 381 283.3 371 340.2 369.8C397 368.7 454 376.3 510.8 390.2C567.7 404 624.3 424 681 441.5C737.7 459 794.3 474 851 477.7C907.7 481.3 964.3 473.7 1021 469.8C1077.7 466 1134.3 466 1191 457.3C1247.7 448.7 1304.3 431.3 1361.2 418.8C1418 406.3 1475 398.7 1531.8 404.8C1588.7 411 1645.3 431 1702 441C1758.7 451 1815.3 451 1843.7 451L1872 451L1872 307L1843.7 290.7C1815.3 274.3 1758.7 241.7 1702 234.2C1645.3 226.7 1588.7 244.3 1531.8 259.3C1475 274.3 1418 286.7 1361.2 294.2C1304.3 301.7 1247.7 304.3 1191 294.3C1134.3 284.3 1077.7 261.7 1021 259.2C964.3 256.7 907.7 274.3 851 270.5C794.3 266.7 737.7 241.3 681 231.3C624.3 221.3 567.7 226.7 510.8 224.3C454 222 397 212 340.2 212C283.3 212 226.7 222 170 235.7C113.3 249.3 56.7 266.7 28.3 275.3L0 284Z" fill="#cee9e8"></path><path d="M0 504L28.3 494C56.7 484 113.3 464 170 452.7C226.7 441.3 283.3 438.7 340.2 438.7C397 438.7 454 441.3 510.8 452.7C567.7 464 624.3 484 681 499C737.7 514 794.3 524 851 525.2C907.7 526.3 964.3 518.7 1021 521.2C1077.7 523.7 1134.3 536.3 1191 526.3C1247.7 516.3 1304.3 483.7 1361.2 468.7C1418 453.7 1475 456.3 1531.8 470.2C1588.7 484 1645.3 509 1702 517.7C1758.7 526.3 1815.3 518.7 1843.7 514.8L1872 511L1872 449L1843.7 449C1815.3 449 1758.7 449 1702 439C1645.3 429 1588.7 409 1531.8 402.8C1475 396.7 1418 404.3 1361.2 416.8C1304.3 429.3 1247.7 446.7 1191 455.3C1134.3 464 1077.7 464 1021 467.8C964.3 471.7 907.7 479.3 851 475.7C794.3 472 737.7 457 681 439.5C624.3 422 567.7 402 510.8 388.2C454 374.3 397 366.7 340.2 367.8C283.3 369 226.7 379 170 395.3C113.3 411.7 56.7 434.3 28.3 445.7L0 457Z" fill="#ffffff"></path><path d="M0 534L28.3 527.7C56.7 521.3 113.3 508.7 170 499.8C226.7 491 283.3 486 340.2 487.3C397 488.7 454 496.3 510.8 508.8C567.7 521.3 624.3 538.7 681 548.7C737.7 558.7 794.3 561.3 851 560.2C907.7 559 964.3 554 1021 556.5C1077.7 559 1134.3 569 1191 559C1247.7 549 1304.3 519 1361.2 507.7C1418 496.3 1475 503.7 1531.8 521.2C1588.7 538.7 1645.3 566.3 1702 577.7C1758.7 589 1815.3 584 1843.7 581.5L1872 579L1872 509L1843.7 512.8C1815.3 516.7 1758.7 524.3 1702 515.7C1645.3 507 1588.7 482 1531.8 468.2C1475 454.3 1418 451.7 1361.2 466.7C1304.3 481.7 1247.7 514.3 1191 524.3C1134.3 534.3 1077.7 521.7 1021 519.2C964.3 516.7 907.7 524.3 851 523.2C794.3 522 737.7 512 681 497C624.3 482 567.7 462 510.8 450.7C454 439.3 397 436.7 340.2 436.7C283.3 436.7 226.7 439.3 170 450.7C113.3 462 56.7 482 28.3 492L0 502Z" fill="#ffffff"></path><path d="M0 601L28.3 604.8C56.7 608.7 113.3 616.3 170 617.7C226.7 619 283.3 614 340.2 617.7C397 621.3 454 633.7 510.8 634.8C567.7 636 624.3 626 681 626C737.7 626 794.3 636 851 642.3C907.7 648.7 964.3 651.3 1021 651.3C1077.7 651.3 1134.3 648.7 1191 642.3C1247.7 636 1304.3 626 1361.2 627.3C1418 628.7 1475 641.3 1531.8 648.8C1588.7 656.3 1645.3 658.7 1702 654.8C1758.7 651 1815.3 641 1843.7 636L1872 631L1872 577L1843.7 579.5C1815.3 582 1758.7 587 1702 575.7C1645.3 564.3 1588.7 536.7 1531.8 519.2C1475 501.7 1418 494.3 1361.2 505.7C1304.3 517 1247.7 547 1191 557C1134.3 567 1077.7 557 1021 554.5C964.3 552 907.7 557 851 558.2C794.3 559.3 737.7 556.7 681 546.7C624.3 536.7 567.7 519.3 510.8 506.8C454 494.3 397 486.7 340.2 485.3C283.3 484 226.7 489 170 497.8C113.3 506.7 56.7 519.3 28.3 525.7L0 532Z" fill="#cee9e8"></path><path d="M0 676L28.3 677.3C56.7 678.7 113.3 681.3 170 683.8C226.7 686.3 283.3 688.7 340.2 693.7C397 698.7 454 706.3 510.8 706.3C567.7 706.3 624.3 698.7 681 694.8C737.7 691 794.3 691 851 691C907.7 691 964.3 691 1021 693.5C1077.7 696 1134.3 701 1191 702.3C1247.7 703.7 1304.3 701.3 1361.2 698.8C1418 696.3 1475 693.7 1531.8 696.2C1588.7 698.7 1645.3 706.3 1702 707.7C1758.7 709 1815.3 704 1843.7 701.5L1872 699L1872 629L1843.7 634C1815.3 639 1758.7 649 1702 652.8C1645.3 656.7 1588.7 654.3 1531.8 646.8C1475 639.3 1418 626.7 1361.2 625.3C1304.3 624 1247.7 634 1191 640.3C1134.3 646.7 1077.7 649.3 1021 649.3C964.3 649.3 907.7 646.7 851 640.3C794.3 634 737.7 624 681 624C624.3 624 567.7 634 510.8 632.8C454 631.7 397 619.3 340.2 615.7C283.3 612 226.7 617 170 615.7C113.3 614.3 56.7 606.7 28.3 602.8L0 599Z" fill="#8fcecc"></path><path d="M0 751L28.3 751C56.7 751 113.3 751 170 751C226.7 751 283.3 751 340.2 751C397 751 454 751 510.8 751C567.7 751 624.3 751 681 751C737.7 751 794.3 751 851 751C907.7 751 964.3 751 1021 751C1077.7 751 1134.3 751 1191 751C1247.7 751 1304.3 751 1361.2 751C1418 751 1475 751 1531.8 751C1588.7 751 1645.3 751 1702 751C1758.7 751 1815.3 751 1843.7 751L1872 751L1872 697L1843.7 699.5C1815.3 702 1758.7 707 1702 705.7C1645.3 704.3 1588.7 696.7 1531.8 694.2C1475 691.7 1418 694.3 1361.2 696.8C1304.3 699.3 1247.7 701.7 1191 700.3C1134.3 699 1077.7 694 1021 691.5C964.3 689 907.7 689 851 689C794.3 689 737.7 689 681 692.8C624.3 696.7 567.7 704.3 510.8 704.3C454 704.3 397 696.7 340.2 691.7C283.3 686.7 226.7 684.3 170 681.8C113.3 679.3 56.7 676.7 28.3 675.3L0 674Z" fill="#43b2b0"></path></svg>