<svg id="visual" viewBox="0 0 1920 1745" width="1920" height="1745" xmlns="http://www.w3.org/2000/svg" xmlns:xlink="http://www.w3.org/1999/xlink" version="1.1"><rect x="0" y="0" width="1920" height="1745" fill="#429594"></rect><path d="M0 601L274 957L549 630L823 979L1097 871L1371 907L1646 1009L1920 723L1920 1746L1646 1746L1371 1746L1097 1746L823 1746L549 1746L274 1746L0 1746Z" fill="#43b2b0"></path><path d="M0 798L274 957L549 1166L823 908L1097 835L1371 1034L1646 1015L1920 1106L1920 1746L1646 1746L1371 1746L1097 1746L823 1746L549 1746L274 1746L0 1746Z" fill="#3a9c95"></path><path d="M0 1037L274 1083L549 1313L823 1080L1097 1069L1371 1035L1646 1131L1920 1260L1920 1746L1646 1746L1371 1746L1097 1746L823 1746L549 1746L274 1746L0 1746Z" fill="#32867c"></path><path d="M0 1411L274 1437L549 1284L823 1253L1097 1327L1371 1482L1646 1448L1920 1321L1920 1746L1646 1746L1371 1746L1097 1746L823 1746L549 1746L274 1746L0 1746Z" fill="#297164"></path><path d="M0 1440L274 1620L549 1570L823 1520L1097 1453L1371 1602L1646 1509L1920 1517L1920 1746L1646 1746L1371 1746L1097 1746L823 1746L549 1746L274 1746L0 1746Z" fill="#215d4e"></path></svg>